# xmcd
#
# Track frame offsets:
#        150
#        14680
#        42788
#        57015
#        82948
#
# Disc length: 1394 seconds
#
# Revision: 1
# Processed by: cddbd v1.5.1PL0 Copyright (c) Steve Scherf et al.
# Submitted via: ExactAudioCopy v0.95a5
#
DISCID=31057005
DTITLE=Tokyo's Coolest Combo - Five Live Coolest Combo EP
DYEAR=1993
DGENRE=Instrumental
TTITLE0=Peppermint Rainbow
TTITLE1=Sweet Soul Revue
TTITLE2=Anderlecht Champion
TTITLE3=The James Bond Theme
TTITLE4=Light my Fire
EXTD=
EXTT0=
EXTT1=
EXTT2=
EXTT3=
EXTT4=
PLAYORDER=
